<svg xmlns="http://www.w3.org/2000/svg" xmlns:xlink="http://www.w3.org/1999/xlink" width="38.97" height="38.97" viewBox="0 0 38.97 38.97"><defs><filter id="a" x="0" y="0" width="38.97" height="38.97" filterUnits="userSpaceOnUse"><feOffset dy="3" input="SourceAlpha"/><feGaussianBlur stdDeviation="3" result="b"/><feFlood flood-color="#fc8019" flood-opacity="0.722"/><feComposite operator="in" in2="b"/><feComposite in="SourceGraphic"/></filter></defs><g transform="translate(8.125 5.115)"><g transform="translate(0 0.011)"><g transform="matrix(1, 0, 0, 1, -8.13, -5.13)" filter="url(#a)"><circle cx="10.485" cy="10.485" r="10.485" transform="translate(9 6)" fill="#fc8019"/></g></g><g transform="translate(7.422 7.321)"><path d="M168.152,172.72a.88.88,0,0,1-.622-1.5l6.224-6.224A.88.88,0,0,1,175,166.238l-6.224,6.224A.879.879,0,0,1,168.152,172.72Z" transform="translate(-167.27 -164.735)" fill="#fff"/><path d="M174.356,172.72a.878.878,0,0,1-.622-.258l-6.224-6.224a.88.88,0,0,1,1.245-1.245l6.224,6.224a.88.88,0,0,1-.622,1.5Z" transform="translate(-167.251 -164.735)" fill="#fff"/></g></g></svg>