<svg xmlns="http://www.w3.org/2000/svg" xmlns:xlink="http://www.w3.org/1999/xlink" width="381.744" height="380.74" viewBox="0 0 381.744 380.74"><defs><clipPath id="a"><circle cx="86.763" cy="86.763" r="86.763" transform="translate(0 122.701) rotate(-45)" fill="none"/></clipPath></defs><g transform="translate(-786.5 -2898)"><rect width="380.74" height="380.74" transform="translate(787 2898)" fill="#fff" opacity="0"/><g transform="translate(464.548 2643.568)"><circle cx="164.265" cy="164.265" r="164.265" transform="translate(349.685 280.432)" fill="#9eca01"/><g transform="translate(376.25 283.708)"><circle cx="86.763" cy="86.763" r="86.763" transform="translate(0 122.701) rotate(-45)" fill="#fff"/><g clip-path="url(#a)"><path d="M338.332,384.967s17.529-64.989,59.6-55.083,65.914-48.8,80.639-50.236,34.715,44.073,30.7,65.249-11.763,85.6-51.734,83.2-79.237-2.8-79.237-2.8" transform="translate(-295.316 -211.828)" fill="#d2d2d2"/></g><path d="M86.763,0A86.763,86.763,0,1,1,0,86.763,86.763,86.763,0,0,1,86.763,0Z" transform="translate(0 122.701) rotate(-45)" fill="none"/><path d="M370.088,282.6s-11.444-3.981-12.1,4.871c0,0,8.823-5.964,12.967-1.51,0,0,1.4-6.98,5.953-9.733S371.981,272.391,370.088,282.6Z" transform="translate(-273.347 -210.408)"/><path d="M390.9,285.411s-15.214-5.292-16.087,6.476c0,0,11.73-7.927,17.239-2.008,0,0,1.868-9.28,7.914-12.937S393.419,271.842,390.9,285.411Z" transform="translate(-254.538 -210.305)"/><path d="M356.237,293.832s-8.715-3.031-9.214,3.708c0,0,6.72-4.541,9.873-1.15,0,0,1.069-5.313,4.534-7.41S357.68,286.06,356.237,293.832Z" transform="translate(-285.602 -195.649)"/></g><g transform="translate(463.692 374.501)"><rect width="68.781" height="79.48" rx="7.964" transform="translate(1.524 71.217)" fill="#e8bc5b" stroke="#000" stroke-miterlimit="10" stroke-width="0.75"/><g transform="translate(5.784)"><path d="M366.255,334.265s-3.4-3.668-3.856-10.911a47.419,47.419,0,0,1,.68-12.234s2.723-5.333,3.177-6.353-3.062,1.929-3.062,1.929-2.156-4.992,6.353-7.715l-3.628-1.929s1.131-7.033,12.023-5.786c0,0,8.321.909,9.265,2.383s-6.137-5.445-6.137-5.445,10.369-4.426,20.581,5.9,8.74,4.765,8.74,4.312,1.247-2.609,3.971,2.156,5.559,24.422-1.7,31.781" transform="translate(-361.762 -286.758)" fill="#ffb339"/><path d="M366.147,334.891c-.144-.157-3.535-3.89-4-11.237a47.581,47.581,0,0,1,.69-12.387c.055-.135,1.667-3.3,2.607-5.2-.51.381-1.108.856-1.635,1.3l-.546.457-.282-.652a4.893,4.893,0,0,1,.176-3.742c.813-1.785,2.611-3.223,5.352-4.284l-2.9-1.538.059-.375c.015-.072,1.343-7.52,12.607-6.226a51.845,51.845,0,0,1,5.947.974c-.849-.8-1.912-1.828-3.251-3.134l-.565-.555.731-.309c.1-.049,10.811-4.447,21.163,6.014,6.355,6.423,7.645,6.108,7.783,6.034.049-.023.2-.174.076-1.1a2.128,2.128,0,0,1-.026-.254,1.574,1.574,0,0,1,1.122-1.362c1.144-.3,2.431.79,3.837,3.253,2.675,4.687,5.739,24.795-1.785,32.419l-.752-.745c7.054-7.147,4.119-26.769,1.618-31.148-1.593-2.783-2.474-2.8-2.613-2.759a.53.53,0,0,0-.371.371c.087.612.25,1.836-.642,2.274s-2.707.119-9-6.241c-8.255-8.346-16.652-6.792-19.214-6.048,1.595,1.546,3.236,3.094,4.293,4.036a2.914,2.914,0,0,1,1.3.9c.32.5.116.775-.032.9-.26.212-.428.347-1.864-.894a37.689,37.689,0,0,0-7.874-1.576c-8.92-1.014-10.955,3.617-11.355,4.985l4.373,2.325-1.194.383c-3.081.985-5.051,2.363-5.849,4.094a3.99,3.99,0,0,0-.354,2.173c2.52-2.05,2.8-1.828,3.086-1.609a.643.643,0,0,1,.15.839c-.453,1.023-3.075,6.154-3.189,6.379h0a49.373,49.373,0,0,0-.625,11.963c.436,6.944,3.685,10.547,3.719,10.583Z" transform="translate(-362.041 -287.023)" fill="#0a0700"/><g transform="translate(48.779 17.764)"><path d="M385.141,296.211a30.543,30.543,0,0,1,3.151,9.405c.112.671,1.133.385,1.023-.282a31.5,31.5,0,0,0-3.261-9.659c-.318-.6-1.233-.068-.913.536Z" transform="translate(-385.074 -295.411)" fill="#0a0700"/></g><g transform="translate(52.353 29.694)"><path d="M386.762,301.556v1.192a.53.53,0,0,0,1.059,0v-1.192a.53.53,0,0,0-1.059,0Z" transform="translate(-386.762 -301.044)" fill="#0a0700"/></g><g transform="translate(8.841 6.165)"><path d="M367.247,291.81c.123-.652,2.637-.794,3.033-.813a10.482,10.482,0,0,1,2.882.277c.663.15.947-.87.282-1.021a11.557,11.557,0,0,0-4.471-.178c-.923.15-2.535.328-2.747,1.453-.125.665.9.951,1.021.282Z" transform="translate(-366.216 -289.935)" fill="#0a0700"/></g><g transform="translate(17.833 7.177)"><path d="M370.968,291.475l1.531.165c.678.074.671-.987,0-1.059l-1.531-.165c-.678-.072-.671.987,0,1.059Z" transform="translate(-370.462 -290.412)" fill="#0a0700"/></g><g transform="translate(27.867 2.373)"><path d="M375.706,289.205c4.21.369,8.511,4.92,11.343,7.762a.529.529,0,0,0,.748-.748c-3.092-3.107-7.486-7.671-12.09-8.073-.678-.057-.673,1,0,1.059Z" transform="translate(-375.2 -288.144)" fill="#0a0700"/></g><g transform="translate(4.362 18.728)"><path d="M409.623,309.447s-.174,6.637,0,19.06-4.6,15.438-9.53,20.422-22.124,3.016-22.124,3.016c-11.912-5.832-13.613-19.352-13.613-19.352V310.979s2.281-6.127,10.756-9.075c0,0-3.143,3.63,1.984,1.927s13.069-4.424,13.069-4.424-4.2,4.538,1.7,3.4,14.068-6.694,14.068-6.694S409.667,306.9,409.623,309.447Z" transform="translate(-363.822 -295.587)" fill="#f7d384"/><path d="M385.753,353.145a72.185,72.185,0,0,1-7.569-.4.562.562,0,0,1-.174-.049c-12.029-5.892-13.891-19.625-13.905-19.763l0-21.68a.542.542,0,0,1,.032-.184c.1-.26,2.467-6.393,11.08-9.392a.543.543,0,0,1,.612.2.531.531,0,0,1-.038.642,3.133,3.133,0,0,0-.822,1.487h0c.028,0,.453.186,2.238-.4,5.125-1.7,13.065-4.424,13.065-4.424a.521.521,0,0,1,.614.212.527.527,0,0,1-.053.648c-.775.841-1.489,2.05-1.273,2.44.032.049.354.489,2.486.087,5.722-1.1,13.789-6.557,13.869-6.612a.529.529,0,0,1,.8.265c.152.445,3.767,10.9,3.721,13.511v0c0,.068-.172,6.773,0,19.041.155,11.25-3.641,14.926-8.035,19.181-.544.525-1.095,1.061-1.65,1.62C397.85,352.5,391.117,353.145,385.753,353.145Zm-7.357-1.438c1.336.142,17.076,1.694,21.595-2.872.559-.563,1.116-1.1,1.665-1.633,4.216-4.087,7.861-7.616,7.713-18.408-.167-12.245,0-18.965,0-19.081.03-1.887-2.3-9.132-3.441-12.5-1.982,1.3-8.592,5.415-13.689,6.394-1.269.244-3.022.447-3.609-.612a2.384,2.384,0,0,1,.362-2.258c-2.592.885-7.757,2.645-11.457,3.876-1.948.64-3.016.635-3.46-.025a1.406,1.406,0,0,1-.006-1.33c-6.434,2.772-8.626,7.431-8.912,8.1v21.508C365.17,332.937,366.96,346.052,378.4,351.707Zm31.506-41.98h0Z" transform="translate(-364.101 -295.866)"/></g><g transform="translate(13.928 36.057)"><path d="M370.3,307.263c.093-.826,1.476-1.2,2.12-1.366a6.46,6.46,0,0,1,2.548-.138c1.057.148,1.514-1.47.447-1.62-2.346-.33-6.459.146-6.794,3.124-.121,1.074,1.561,1.065,1.679,0Z" transform="translate(-368.618 -304.049)"/></g><g transform="translate(34.997 36.597)"><path d="M379.6,306.165a3.378,3.378,0,0,1,3.693,1.044c.712.815,1.9-.377,1.188-1.188a5.027,5.027,0,0,0-5.328-1.476c-1.025.328-.587,1.95.447,1.62Z" transform="translate(-378.567 -304.304)"/></g><g transform="translate(15.648 42.914)"><path d="M373.09,309.966c0,1.48-.82,2.681-1.83,2.681s-1.83-1.2-1.83-2.681.82-2.679,1.83-2.679S373.09,308.486,373.09,309.966Z" transform="translate(-369.43 -307.287)"/></g><g transform="translate(36.228 42.613)"><path d="M382.808,309.826c0,1.48-.818,2.679-1.83,2.679s-1.83-1.2-1.83-2.679.82-2.681,1.83-2.681S382.808,308.346,382.808,309.826Z" transform="translate(-379.148 -307.145)"/></g><g transform="translate(6.175 12.467)"><path d="M365.77,295.693a23.3,23.3,0,0,1,6.411-1.72c.667-.08.676-1.139,0-1.059a25.106,25.106,0,0,0-6.946,1.864c-.625.267-.085,1.18.536.915Z" transform="translate(-364.957 -292.91)" fill="#0a0700"/></g><g transform="translate(16.115 12.974)"><path d="M370.308,294.373l.678-.182a.53.53,0,0,0-.282-1.021l-.678.182a.53.53,0,0,0,.282,1.021Z" transform="translate(-369.651 -293.149)" fill="#0a0700"/></g><path d="M375.109,308.953s-1.362,6.921,0,7.6a5.3,5.3,0,0,0,3.4,0" transform="translate(-348.111 -262.511)" fill="none" stroke="#000" stroke-linecap="round" stroke-linejoin="round" stroke-width="0.5"/><path d="M364.962,310.621s9.189,10.481,19.628,9.8,23.071-11.87,23.071-11.87.836,10.394,0,13.117-4.805,9.757-9.57,12.707-10.993,2.95-11.679,3.064-12.071-1.135-11.881-1.476-5.371-5.646-7.865-10.324S364.962,310.621,364.962,310.621Z" transform="translate(-358.91 -262.959)" fill="#dbc495" opacity="0.59"/></g><g transform="translate(0 2.555)"><g transform="translate(0 34.065)"><g transform="translate(2.336)"><rect width="7.426" height="16.817" rx="1.09" transform="translate(0.265 0.265)" fill="#ce8024"/><path d="M365.8,321.662h-2.81a2.576,2.576,0,0,1-2.573-2.573v-12.2a2.576,2.576,0,0,1,2.573-2.573h2.81a2.576,2.576,0,0,1,2.573,2.573v12.2A2.576,2.576,0,0,1,365.8,321.662Zm-2.81-16.817a2.045,2.045,0,0,0-2.044,2.044v12.2a2.045,2.045,0,0,0,2.044,2.044h2.81a2.045,2.045,0,0,0,2.044-2.044v-12.2a2.045,2.045,0,0,0-2.044-2.044Z" transform="translate(-360.413 -304.315)"/></g><g transform="translate(0 1.866)"><path d="M361.768,305.53l-2.329,2.677.454,6.1,1.875,1.61Z" transform="translate(-359.166 -304.823)" fill="#f7ca5c"/><path d="M362.175,316.869l-2.4-2.054-.468-6.326,2.865-3.293Zm-1.885-2.315,1.355,1.165v-9.109l-1.792,2.058Z" transform="translate(-359.31 -305.196)"/></g></g><g transform="translate(55.685 33.161)"><rect width="7.426" height="16.817" rx="1.09" transform="translate(7.689 17.081) rotate(180)" fill="#ce8024"/><path d="M390.985,321.235h-2.812a2.574,2.574,0,0,1-2.569-2.573v-12.2a2.573,2.573,0,0,1,2.569-2.571h2.812a2.575,2.575,0,0,1,2.571,2.571v12.2A2.576,2.576,0,0,1,390.985,321.235Zm-2.812-16.817a2.044,2.044,0,0,0-2.039,2.042v12.2a2.044,2.044,0,0,0,2.039,2.044h2.812a2.044,2.044,0,0,0,2.042-2.044v-12.2a2.044,2.044,0,0,0-2.042-2.042Z" transform="translate(-385.604 -303.888)"/><g transform="translate(7.423 1.864)"><path d="M389.235,305.1l2.329,2.676-.454,6.1-1.875,1.61Z" transform="translate(-388.969 -304.394)" fill="#f7ca5c"/><path d="M389.109,316.445V304.768l2.867,3.293-.47,6.324Zm.529-10.263v9.109l1.355-1.163.436-5.885Z" transform="translate(-389.109 -304.768)"/></g></g><g transform="translate(6.194)"><path d="M362.718,322.748c-.112-.616-2.647-15.239,5.125-25.265,4.089-5.271,10.261-8.242,18.344-8.833.337-.085,11.842-2.421,20.638,4.9,6.648,5.536,9.835,15,9.471,28.13l-2.118-.059c.345-12.446-2.584-21.345-8.708-26.445-8.014-6.675-18.876-4.462-18.984-4.439-7.6.563-13.259,3.259-16.963,8.031-7.2,9.267-4.744,23.456-4.721,23.6Z" transform="translate(-362.235 -288.23)"/></g></g><g transform="translate(11.576 32.588)"><path d="M386.089,312.435c0,5.385-4.771,9.752-10.657,9.752s-10.657-4.367-10.657-9.752,4.771-9.754,10.657-9.754S386.089,307.048,386.089,312.435Z" transform="translate(-364.776 -302.109)" fill="#fcb259" stroke="#000" stroke-miterlimit="10" stroke-width="0.25" style="mix-blend-mode:multiply;isolation:isolate"/><path d="M395.755,312.479a10.068,10.068,0,1,1-10.068-10.068A10.067,10.067,0,0,1,395.755,312.479Z" transform="translate(-352.656 -302.411)" fill="#fcb259" stroke="#000" stroke-miterlimit="10" stroke-width="0.25" style="mix-blend-mode:multiply;isolation:isolate"/><path d="M374.622,306.32a1.726,1.726,0,0,1,2.533-.3" transform="translate(-353.771 -298.834)" fill="#fcb259" stroke="#000" stroke-miterlimit="10" stroke-width="0.25"/></g></g><g transform="translate(344.525 436.046)"><g transform="translate(15.335)"><g transform="translate(0 1.754)"><path d="M316.626,354.787s-10.578-23.257-3.869-26.093c0,0,4.958-.5,7.628,10.65.074.307.144.62.214.945,0,0-6.353-14.99,0-21.574s6.6,9.9,6.648,10.447c0,0,1.383-7.277,6.783-7.842s-3.918,20.76-3.918,20.76,2.74-7.446,8.073-6.106-9.947,26.074-9.947,26.074Z" transform="translate(-310.004 -316.632)" fill="#ffc543"/><path d="M328.687,363.059l-12.2-7.628-.066-.146c-.337-.735-8.168-18.092-5.64-24.573a3.773,3.773,0,0,1,2.044-2.228l.157-.04c.133-.011,2.476-.184,4.828,2.995-.659-4.483-.447-9.568,2.683-12.812,1.425-1.478,2.724-2,3.878-1.565,2.224.849,3.151,5.218,3.511,9.519.97-2.264,2.876-5.14,6.368-5.508a1.809,1.809,0,0,1,1.72.705c1.652,2.255-.947,10.254-3.022,15.691a5.8,5.8,0,0,1,5.64-1.726A1.862,1.862,0,0,1,339.9,336.9c1.908,4.7-9.611,23.573-10.932,25.71ZM317.32,354.7l11.023,6.893c3.67-6.01,11.98-20.832,10.572-24.3a.8.8,0,0,0-.582-.525c-3.882-.976-6.339,3.352-7.152,5.087-.138.324-.244.57-.307.718l-.983-.394c0-.015.108-.288.307-.716,2.81-6.571,6.423-17.006,4.92-19.06a.7.7,0,0,0-.756-.275c-4.941.517-6.3,7.347-6.319,7.414l-.729,3.806-.33-4.123c-.25-6.379-1.368-10.555-2.988-11.173-.718-.271-1.639.169-2.738,1.311-3.53,3.662-2.914,10.176-1.783,14.981a29.32,29.32,0,0,1,1.7,5.159c.074.307.146.625.216.951l-1,.322a42.5,42.5,0,0,1-1.972-6.186c-2.221-4.773-4.809-5.074-5.265-5.089a2.747,2.747,0,0,0-1.385,1.6C309.517,336.869,316.564,353,317.32,354.7Z" transform="translate(-310.281 -316.913)"/></g><g transform="translate(9.112 1.948)"><path d="M317.12,319.61a10.739,10.739,0,0,0-1.648-2.435c-.453-.51-1.2.241-.748.75a9.728,9.728,0,0,1,1.48,2.219c.3.612,1.214.076.915-.534Z" transform="translate(-314.584 -317.005)"/></g><g transform="translate(13.321)"><path d="M317.63,318.212a2.437,2.437,0,0,1,.36-1.336.53.53,0,0,0-.915-.534,3.526,3.526,0,0,0-.5,1.87.53.53,0,0,0,1.059,0Z" transform="translate(-316.571 -316.085)"/></g><g transform="translate(5.625 7.808)"><path d="M313.2,320.757l1.465.807c.6.33,1.133-.585.536-.915l-1.468-.807c-.6-.33-1.133.585-.534.915Z" transform="translate(-312.937 -319.772)"/></g><g transform="translate(24.052 4.071)"><path d="M322.644,320.737a16.179,16.179,0,0,1,1.41-1.813c.455-.506-.292-1.256-.748-.748a17.962,17.962,0,0,0-1.578,2.025c-.381.568.536,1.1.915.536Z" transform="translate(-321.638 -318.007)"/></g><g transform="translate(26.696 17.601)"><path d="M323.887,328.022a8.465,8.465,0,0,0,1.186-2.963c.131-.665-.889-.951-1.021-.282a7.692,7.692,0,0,1-1.08,2.711c-.366.576.549,1.108.915.534Z" transform="translate(-322.887 -324.396)"/></g><g transform="translate(28.538 22.488)"><path d="M324.118,327.98a1.415,1.415,0,0,0,1.571-.371.53.53,0,0,0-.748-.75l-.542.1c-.642-.233-.919.79-.282,1.021Z" transform="translate(-323.757 -326.703)"/></g><g transform="translate(28.011 28.196)"><path d="M323.86,330.46a11.18,11.18,0,0,0,2.245.654c.665.121.951-.9.282-1.021a11.175,11.175,0,0,1-2.245-.654c-.631-.256-.906.767-.282,1.021Z" transform="translate(-323.508 -329.399)"/></g></g><g transform="translate(3.884 46.583)"><path d="M309.3,372.246l-4.424-33.632h29.27s-6.125,32.971-5.1,33.855S309.3,372.246,309.3,372.246Z" transform="translate(-304.874 -337.485)" fill="#ffdf8f" stroke="#000" stroke-miterlimit="10" stroke-width="0.75"/><path d="M321.627,339.21s10.21-1.283,10.72-1.114-12.933,35.309-12.933,35.309l-3.744-.341Z" transform="translate(-292.807 -338.081)" fill="#ffcd5f" stroke="#000" stroke-miterlimit="10" stroke-width="0.75"/></g><path d="M306.126,335.186a5.1,5.1,0,0,0-2.726.841" transform="translate(-302.637 -294.734)" fill="none" stroke="#000" stroke-miterlimit="10" stroke-width="0.5"/><g transform="translate(0 15.926)"><path d="M314.444,353.107c-.51.246-14.634-5.54-10.72-10.987s9.358.682,9.358.682-5.275-12.084,0-16.167,8,8,8,8,1.362-8.34,4.937-9.871,6.576,10.655,4.138,14.176c0,0,5.392-4.477,8.8-2.264s-1.362,10.381-8,11.4l4.255,5.03Z" transform="translate(-303.04 -322.458)" fill="#e2ae44" stroke="#000" stroke-linecap="round" stroke-linejoin="round" stroke-width="0.5"/><g transform="translate(6.2 5.512)"><path d="M306.236,327.185c.451.229.9.46,1.357.688.606.307,1.144-.606.534-.915l-1.357-.688c-.606-.307-1.144.606-.534.915Z" transform="translate(-305.967 -326.208)"/></g><g transform="translate(9.596 1.182)"><path d="M309.5,326.469c-.354-.663-.676-1.336-.968-2.029-.267-.625-1.177-.085-.915.536.292.69.614,1.364.968,2.027.322.6,1.237.068.915-.534Z" transform="translate(-307.571 -324.163)"/></g><g transform="translate(13.44 2.816)"><path d="M310.39,327.866q.7-1.055,1.339-2.143a.529.529,0,0,0-.913-.534q-.642,1.09-1.341,2.143c-.377.57.54,1.1.915.534Z" transform="translate(-309.386 -324.935)"/></g><g transform="translate(5.809 12.622)"><path d="M308.481,330.37c.256.011.178-.034-.235-.131l-.544-.191-1.275-.451c-.644-.227-.921.8-.282,1.023.712.25,2.147,1.146,2.872.665.563-.375.034-1.292-.536-.915Z" transform="translate(-305.783 -329.565)"/></g><g transform="translate(23.238)"><path d="M315.058,327.174l.862-2.916a.53.53,0,0,0-1.021-.282q-.432,1.458-.862,2.916a.53.53,0,0,0,1.021.282Z" transform="translate(-314.013 -323.605)"/></g><g transform="translate(18.391 3.798)"><path d="M311.849,326.328a17.012,17.012,0,0,0,1.675,1.817c.5.466,1.247-.282.75-.75a16.98,16.98,0,0,1-1.675-1.815c-.426-.532-1.171.22-.75.748Z" transform="translate(-311.724 -325.398)"/></g><g transform="translate(3.71 15.591)"><path d="M306.735,334.07q-.445-1.369-.894-2.736c-.21-.646-1.233-.369-1.021.282l.894,2.736c.212.644,1.235.369,1.021-.282Z" transform="translate(-304.792 -330.967)"/></g><g transform="translate(25.88 7.123)"><path d="M315.908,329.16a14.367,14.367,0,0,0,2.66-1.2.53.53,0,0,0-.534-.915,13.058,13.058,0,0,1-2.408,1.095c-.644.216-.368,1.239.282,1.021Z" transform="translate(-315.26 -326.968)"/></g><g transform="translate(28.149 18.022)"><path d="M317.124,333.623l.93-.523a.529.529,0,0,0-.534-.913l-.93.523a.529.529,0,0,0,.534.913Z" transform="translate(-316.332 -332.115)"/></g><g transform="translate(34.804 19.791)"><path d="M319.849,333.992c.663.174,1.315.366,1.965.58s.925-.807.282-1.021-1.3-.409-1.965-.582a.531.531,0,0,0-.282,1.023Z" transform="translate(-319.474 -332.95)"/></g><g transform="translate(34.446 12)"><path d="M320.3,331.177a3.294,3.294,0,0,0,.472-1.241c.112-.667-.908-.953-1.021-.282a2.613,2.613,0,0,1-.366.987c-.36.582.557,1.114.915.536Z" transform="translate(-319.305 -329.271)"/></g><g transform="translate(30.866 24.077)"><path d="M317.781,335.868c.4.366.8.733,1.2,1.1.5.46,1.252-.286.748-.75q-.6-.55-1.194-1.1c-.5-.46-1.252.286-.75.75Z" transform="translate(-317.615 -334.974)"/></g></g><path d="M322.236,321.5l1.569-.616" transform="translate(-281.583 -310.724)" fill="none" stroke="#000" stroke-miterlimit="10" stroke-width="0.5"/><path d="M312.124,324.249a9.543,9.543,0,0,0-.853-2.3" transform="translate(-293.839 -309.525)" fill="none" stroke="#000" stroke-miterlimit="10" stroke-width="0.5"/></g><g transform="translate(453.245 512.207)"><g transform="translate(5.679)"><path d="M357.137,353.952l1.255-1.81h5.02l.793,1.81" transform="translate(-356.972 -351.942)" fill="#e3cd0b"/><path d="M357.389,354.173l-.33-.229,1.315-1.9h5.257l.844,1.931-.368.16-.74-1.689h-4.783Z" transform="translate(-357.059 -352.047)" fill="#011e1a"/></g><g transform="translate(14.039)"><path d="M361.084,353.952l1.255-1.81h5.02l.793,1.81" transform="translate(-360.919 -351.942)" fill="#e3cd0b"/><path d="M361.336,354.173l-.33-.229,1.315-1.9h5.257l.844,1.931-.368.16-.74-1.689h-4.783Z" transform="translate(-361.006 -352.047)" fill="#011e1a"/></g><g transform="translate(22.745)"><path d="M365.195,353.952l1.255-1.81h5.02l.792,1.81" transform="translate(-365.03 -351.942)" fill="#e3cd0b"/><path d="M365.447,354.173l-.33-.229,1.313-1.9h5.257l.845,1.931-.368.16-.742-1.689h-4.783Z" transform="translate(-365.117 -352.047)" fill="#011e1a"/></g><g transform="translate(32.569)"><path d="M369.834,353.952l1.255-1.81h5.02l.793,1.81" transform="translate(-369.669 -351.942)" fill="#e3cd0b"/><path d="M370.086,354.173l-.33-.229,1.315-1.9h5.257l.845,1.931-.368.16-.741-1.689h-4.783Z" transform="translate(-369.756 -352.047)" fill="#011e1a"/></g><g transform="translate(40.931)"><path d="M373.782,353.952l1.255-1.81h5.02l.793,1.81" transform="translate(-373.618 -351.942)" fill="#e3cd0b"/><path d="M374.034,354.173l-.33-.229,1.313-1.9h5.257l.845,1.931-.368.16-.742-1.689h-4.782Z" transform="translate(-373.704 -352.047)" fill="#011e1a"/></g><g transform="translate(49.635)"><path d="M377.892,353.952l1.255-1.81h5.02l.793,1.81" transform="translate(-377.727 -351.942)" fill="#e3cd0b"/><path d="M378.144,354.173l-.33-.229,1.315-1.9h5.257l.844,1.931-.368.16-.74-1.689H379.34Z" transform="translate(-377.815 -352.047)" fill="#011e1a"/></g><g transform="translate(59.978)"><path d="M382.776,353.952l1.255-1.81h5.02l.793,1.81" transform="translate(-382.611 -351.942)" fill="#e3cd0b"/><path d="M383.028,354.173l-.33-.229,1.315-1.9h5.257l.844,1.931-.368.16-.74-1.689h-4.783Z" transform="translate(-382.698 -352.047)" fill="#011e1a"/></g><g transform="translate(68.338)"><path d="M386.724,353.952l1.255-1.81H393l.793,1.81" transform="translate(-386.559 -351.942)" fill="#e3cd0b"/><path d="M386.976,354.173l-.33-.229,1.315-1.9h5.257l.844,1.931-.368.16-.74-1.689h-4.783Z" transform="translate(-386.646 -352.047)" fill="#011e1a"/></g><g transform="translate(77.044)"><path d="M390.834,353.952l1.255-1.81h5.02l.793,1.81" transform="translate(-390.67 -351.942)" fill="#e3cd0b"/><path d="M391.087,354.173l-.33-.229,1.313-1.9h5.257l.845,1.931-.368.16-.742-1.689h-4.783Z" transform="translate(-390.757 -352.047)" fill="#011e1a"/></g><g transform="translate(0 1.609)"><path d="M448.082,357.909H354.654l1.9-4.913h89.205Z" transform="translate(-354.067 -352.595)" fill="#eae9a4"/><path d="M449.029,358.523H354.377l2.207-5.716H446.32Zm-93.478-.8h92.205l-1.944-4.106H357.136Z" transform="translate(-354.377 -352.807)" fill="#000202"/><g transform="translate(2.224 2.47)"><path d="M356.548,353.973l-1.121,1.9,89.809-.086-.862-1.422" transform="translate(-355.427 -353.973)" fill="#e3cd0b"/></g></g></g><g transform="translate(437.687 435.856)"><path d="M2.678,0H120.3a2.678,2.678,0,0,1,2.678,2.678V66.754a2.679,2.679,0,0,1-2.679,2.679H2.679A2.679,2.679,0,0,1,0,66.754V2.678A2.678,2.678,0,0,1,2.678,0Z" fill="#ffdf8f" stroke="#000" stroke-miterlimit="10" stroke-width="0.75"/><path d="M2.679,0H109.866a2.678,2.678,0,0,1,2.678,2.678V58.241a2.679,2.679,0,0,1-2.679,2.679H2.679A2.679,2.679,0,0,1,0,58.241V2.679A2.679,2.679,0,0,1,2.679,0Z" transform="translate(5.219 3.177)" fill="#ffcf37"/><rect width="47.196" height="29.67" rx="3.63" transform="translate(38.574 33.636)" fill="#edbc32"/><path d="M402.749,317.424c.911-.3,1.58.866,1.8,1.8a28.07,28.07,0,0,1,.483,9.983" transform="translate(-284.75 -314.45)" fill="none" stroke="#fff0ca" stroke-miterlimit="10" stroke-width="1"/><path d="M351.731,317.306a6,6,0,0,0-3.126,4.648,17.688,17.688,0,0,0,.392,5.8" transform="translate(-345.396 -314.529)" fill="none" stroke="#fff0ca" stroke-miterlimit="10" stroke-width="1"/><g transform="translate(45.154 50.409)"><g transform="translate(3.752)"><path d="M370.161,366.425l2.927-22.709a4.491,4.491,0,0,1,4.456-3.918h8.7a4.491,4.491,0,0,1,4.4,3.609l4.553,22.709a4.494,4.494,0,0,1-4.4,5.377H374.616A4.494,4.494,0,0,1,370.161,366.425Z" transform="translate(-370.123 -339.798)" fill="#ffdf8f" stroke="#000" stroke-miterlimit="10" stroke-width="0.5"/><path d="M377.334,340.682l4.424,27.228s2.5,1.021,3.291-.453-5.22-26.775-5.22-26.775S377.249,340.165,377.334,340.682Z" transform="translate(-362.066 -339.066)" fill="#f9d37d"/><path d="M375.9,340.453a.424.424,0,0,0-.142.023c-.394.125-1.523.864-2.353,5.2-1.021,5.333-2.5,21.783-2.5,21.783s2.156,1.141,3.291.8-1.588-2.274-1.588-3.975" transform="translate(-369.251 -339.066)" fill="#ffeecf"/></g><rect width="32.22" height="5.446" transform="translate(0 27.419)" fill="#ffdf8f" stroke="#000" stroke-miterlimit="10" stroke-width="0.5"/></g></g><g transform="translate(322.452 519.064)"><g transform="translate(31.519 9.679)"><rect width="285.218" height="38.199" fill="#f8f3e5" stroke="#000707" stroke-miterlimit="10" stroke-width="1"/><path d="M308.143,361.607V390.2l278.411-27.228,1.362-1.362" transform="translate(-306.781 -357.897)" fill="#e0cb8e"/></g><rect width="380.744" height="12.269" fill="#eec746" stroke="#050c0c" stroke-miterlimit="10" stroke-width="1"/><rect width="372.496" height="3.544" transform="translate(3.725 7.907)" fill="#ebba1d"/></g><g transform="translate(591.993 444.697)"><rect width="79.367" height="6.143" transform="translate(3.428 65.509)" fill="#ffc928" stroke="#522708" stroke-miterlimit="10" stroke-width="0.75"/><rect width="86.223" height="67.389" rx="5.25" fill="#fff13a" stroke="#522708" stroke-miterlimit="10" stroke-width="0.75"/><rect width="79.367" height="59.126" rx="3.938" transform="translate(3.428 4.132)" fill="#ffcf37"/><circle cx="5.616" cy="5.616" r="5.616" transform="translate(37.496 28.079)" fill="#ffff9b" stroke="#4f2405" stroke-miterlimit="10" stroke-width="0.25"/></g><g transform="translate(396.513 490.601)"><g transform="translate(0 15.318)"><path d="M327.588,360.924c0-.648,5.212-11.995,17.719-11.845s15.636,11.641,15.636,11.641Z" transform="translate(-327.588 -349.078)" fill="#ffdf8f" stroke="#000" stroke-miterlimit="10" stroke-width="0.75"/><path d="M334.954,357.261h16.508s-1.646-4.538-3.689-5.616-.282,2.808-.282,2.808Z" transform="translate(-319.355 -346.421)" fill="#f4c969"/><path d="M329.171,355.489a10.534,10.534,0,0,0,2.27.51s6.692-5.786,9.983-6.07A17.748,17.748,0,0,0,329.171,355.489Z" transform="translate(-325.825 -348.128)" fill="#f4c969"/></g><path d="M363.263,344.907a3.063,3.063,0,1,1-3.062-3.062A3.063,3.063,0,0,1,363.263,344.907Z" transform="translate(-294.56 -341.845)" fill="#ffdf8f" stroke="#000" stroke-miterlimit="10" stroke-width="0.25"/><path d="M377.632,343.1c2.23,6.264,4.473,12.58,5.4,19.166a49.419,49.419,0,0,1-.913,18.49,19.32,19.32,0,0,1-2.078,5.51,12.08,12.08,0,0,1-6.976,5.3,23.977,23.977,0,0,1-6.889.565,17.832,17.832,0,0,1-6.715-.966c-4.208-1.775-6.419-6.493-7.105-11.006s-.244-9.149-1.021-13.647c-.419-2.423-1.281-4.917-3.179-6.482s-5.053-1.781-6.66.08" transform="translate(-312.044 -340.448)" fill="none" stroke="#000" stroke-miterlimit="10" stroke-width="0.5"/></g><g transform="translate(563.219 450.699)"><g transform="translate(0 33.622)"><g transform="translate(1.904 1.671)"><path d="M407.35,340.34l.247,1.7,3.723,29.674h13.848l3.965-31.916Z" transform="translate(-407.043 -339.525)" fill="#ffdf8f"/><path d="M425.564,372.124H411.248L407.5,342.217l-.292-1.989.3-.009,22.088-.551-.036.307Zm-13.848-.529H425.1l3.9-31.379-21.178.525.205,1.406Z" transform="translate(-407.205 -339.669)"/></g><rect width="25.697" height="4.503" transform="translate(0.263 0.265)" fill="#f2c051"/><path d="M432.53,343.912H406.306V338.88H432.53Zm-25.695-.529H432v-3.973H406.835Z" transform="translate(-406.306 -338.88)"/><g transform="translate(16.653 5.313)"><path d="M415.446,341.389l-1.276,27.058h1.787l3.489-27.058" transform="translate(-414.169 -341.389)" fill="#f4c867"/></g><g transform="translate(0.499 0.85)"><rect width="25.206" height="1.497" fill="#db9c2e"/></g></g><g transform="translate(7.755 16.245)"><path d="M412.977,342.658c-2.344-1.1.3-3.778,1.019-4.757a7.361,7.361,0,0,0,1.421-3.056c.292-1.607-.07-3.247-1.588-4.041-1.207-.629-2.279,1.2-1.069,1.83,3.16,1.65-6.813,9.062-.849,11.851,1.226.574,2.3-1.25,1.067-1.828Z" transform="translate(-409.968 -330.675)" fill="#ffdf8f"/></g><g transform="translate(10.901 3.586)"><path d="M416.48,346.207c.254-1.593,1.629-2.785,1.984-4.407a9.874,9.874,0,0,0-.246-4.668,7.358,7.358,0,0,0-1.434-2.558C415.9,333.4,414.5,332.5,413.9,331c-.591-1.48-.337-3.736-.3-5.28a1.06,1.06,0,0,0-2.118,0c-.068,2.851-.208,6.61,1.872,8.876,1.563,1.7,3.365,3.037,3.151,5.716-.165,2.078-1.762,3.4-2.069,5.335-.212,1.332,1.83,1.906,2.042.563Z" transform="translate(-411.453 -324.697)" fill="#ffdf8f"/></g><g transform="translate(6.432)"><path d="M411.463,328.515a4.065,4.065,0,0,1,2.618-3.59c1.25-.527.172-2.353-1.069-1.828a6.127,6.127,0,0,0-3.666,5.417c-.063,1.362,2.054,1.36,2.118,0Z" transform="translate(-409.343 -323.004)" fill="#ffdf8f"/></g></g></g></g></svg>