<svg xmlns="http://www.w3.org/2000/svg" width="769" height="1289" viewBox="0 0 769 1289">
  <g id="circle" transform="translate(333.622 1259.645) rotate(180)">
    <g id="Group_610" data-name="Group 610" transform="translate(-435.378 -29.355)" style="mix-blend-mode: multiply;isolation: isolate">
      <rect id="Rectangle_297" data-name="Rectangle 297" width="769" height="1289" fill="#fff" style="opacity:0"/>
      <path id="Union_1" data-name="Union 1" d="M97.011,171.979C48.8,171.979,0,139.351,0,76.987A102.164,102.164,0,0,1,5.028,44.623l8.7,2.9A93.064,93.064,0,0,0,9.173,76.987c0,56.341,44.188,85.818,87.838,85.818l.452,9.173ZM21,73.571C21,23.024,60.29,0,96.8,0c37.885,0,76.238,25.271,76.238,73.571,0,48.435-38.353,73.775-76.242,73.775C60.29,147.347,21,124.253,21,73.571Zm9.173,0c0,44.384,34.534,64.606,66.621,64.606,32.307,0,67.069-20.223,67.069-64.606,0-44.248-34.762-64.4-67.065-64.4C64.708,9.173,30.174,29.323,30.174,73.571Zm146.011,43.8c6.046-11.913,9.108-25.5,9.108-40.381,0-19.461-5.183-36.484-15.411-50.608L177.308,21c11.384,15.72,17.157,34.555,17.153,55.986,0,16.335-3.4,31.318-10.1,44.525Z" transform="translate(287.128 559.001)" fill="#e98b1c" stroke="rgba(0,0,0,0)" stroke-miterlimit="10" stroke-width="1"/>
    </g>
  </g>
</svg>
