<svg xmlns="http://www.w3.org/2000/svg" width="459" viewBox="0 0 759.543 1234.569">
  <g id="quest" transform="translate(0.948 -29.355)">
    <g id="q4" transform="translate(44.715 596.657)">
      <g id="Group_580" data-name="Group 580" transform="translate(26.172 10.784)" style="mix-blend-mode: multiply;isolation: isolate">
        <path id="Path_1847" data-name="Path 1847" d="M155.58,588.757h-4l-.541-3.966c-1.8-13.155-3.521-24.627-5.044-34.751-6.969-46.383-9.849-65.581,4.347-87.9,14.613-22.962,34.888-37.406,54.494-51.377,20.7-14.75,42.11-30,56.755-55.471,14.063-24.443,13.347-51.445-1.871-70.478-18.189-22.747-52.252-29.134-91.144-17.1a289.622,289.622,0,0,0-49.355,20.5c-32.49,16.516-34.861,12.861-74.371-48.378-4.085-6.332-8.593-13.315-13.59-21l-2.219-3.407,3.113-2.609c81.423-68.218,181.15-89.287,266.791-56.365,62.661,24.09,104.862,72.675,112.9,129.966,9.134,65.137-27.167,132.144-102.221,188.688-48.772,36.777-46.64,61.817-45.233,78.388.692,8.12,1.343,15.791-4.218,21.848C250.845,585.5,225.43,588.757,155.58,588.757Zm49.836-336.178c25.782,0,47.53,9.088,61.464,26.511,17.625,22.041,18.643,53,2.659,80.781-15.649,27.2-37.883,43.041-59.382,58.364-19.767,14.076-38.428,27.378-52.078,48.827-12.362,19.427-9.817,36.36-3.022,81.616,1.376,9.125,2.912,19.345,4.516,30.9,60.661-.119,87.09-3.081,93.849-10.44,2.705-2.953,2.494-7.13,1.829-14.87-1.582-18.579-3.971-46.654,48.85-86.485C376.378,413.338,411.413,349.38,402.761,287.7c-7.565-53.944-47.6-99.8-107.109-122.68-81.386-31.3-176.244-11.743-254.48,52.243q6.19,9.546,11.38,17.607c18.845,29.2,29.226,45.287,37.016,50.611,6.039,4.122,10.922,1.972,25.5-5.438a298.131,298.131,0,0,1,50.794-21.078A134.381,134.381,0,0,1,205.416,252.578Z" transform="translate(-29.039 -141.2)" fill="#0cc"/>
      </g>
      <g id="Group_581" data-name="Group 581" transform="translate(121.965 502.945)" style="mix-blend-mode: multiply;isolation: isolate">
        <path id="Path_1848" data-name="Path 1848" d="M124.27,393.057c-35.805,0-74.339-22.646-74.339-72.363,0-49.579,38.534-72.156,74.344-72.156,37.153,0,74.77,24.783,74.77,72.156,0,22.275-8.139,41.042-23.545,54.274C161.919,386.633,143.729,393.057,124.27,393.057Zm0-135.349c-31.39,0-65.173,19.707-65.173,62.986,0,43.417,33.783,63.193,65.169,63.193,31.6,0,65.6-19.776,65.6-63.193C189.874,277.415,155.866,257.708,124.275,257.708Z" transform="translate(-49.931 -248.538)" fill="#0cc"/>
      </g>
      <g id="Group_586" data-name="Group 586" style="mix-blend-mode: multiply;isolation: isolate">
        <g id="Group_582" data-name="Group 582" transform="translate(117.556 314.899)">
          <path id="Path_1849" data-name="Path 1849" d="M84.127,370.771H62.847l-2.889-21.087c-1.706-12.5-3.347-23.467-4.805-33.192l-.2-1.316C47.666,266.647,44,242.286,62.182,213.721q2.029-3.2,4.172-6.195l7.469,5.323q-2,2.806-3.907,5.791c-16.337,25.677-12.848,48.905-5.892,95.174l.2,1.32c1.463,9.757,3.113,20.766,4.828,33.307L70.843,361.6H84.127c75.2,0,100.415-3.778,112.423-16.85,4.626-5.039,6.974-10.94,7.4-18.574l9.152.5c-.536,9.734-3.737,17.676-9.794,24.269C188.842,366.695,164.339,370.771,84.127,370.771Z" transform="translate(-48.969 -207.526)" fill="#0cc"/>
        </g>
        <g id="Group_583" data-name="Group 583" transform="translate(196.111 141.934)">
          <path id="Path_1850" data-name="Path 1850" d="M127.905,222.719l-9.115-1a41.816,41.816,0,0,0,.252-4.581,35.936,35.936,0,0,0-4.778-18.267c-8.033-13.893-25.764-21.193-47.539-19.7l-.624-9.152c25.48-1.747,46.26,7.258,56.1,24.255a45.027,45.027,0,0,1,6.011,22.862A51.027,51.027,0,0,1,127.905,222.719Z" transform="translate(-66.102 -169.803)" fill="#0cc"/>
        </g>
        <g id="Group_584" data-name="Group 584">
          <path id="Path_1851" data-name="Path 1851" d="M116.139,324.982c-24.888,0-36.479-17.955-67.452-65.944l-.252-.394c-4.007-6.213-8.423-13.059-13.315-20.574L23.331,219.955,39.9,206.075c39.345-32.967,82.125-55.586,127.16-67.227l2.293,8.877c-43.7,11.3-85.27,33.293-123.561,65.38l-10.34,8.661,7.355,11.3c4.9,7.529,9.322,14.379,13.334,20.6l-3.595,2.88,3.852-2.485c29.808,46.186,39.85,61.748,59.744,61.748,7.057,0,13.494-2.4,20.982-6l3.98,8.267C132.476,322.222,124.933,324.982,116.139,324.982Z" transform="translate(-23.331 -138.848)" fill="#0cc"/>
        </g>
        <g id="Group_585" data-name="Group 585" transform="translate(371.067 141.654)">
          <path id="Path_1852" data-name="Path 1852" d="M111.288,333l-7.029-5.887c32.743-39.111,50.056-81.643,50.056-123A151.823,151.823,0,0,0,150.8,171.7l8.955-1.958a160.87,160.87,0,0,1,3.732,34.37C163.485,247.644,145.434,292.211,111.288,333Z" transform="translate(-104.259 -169.742)" fill="#0cc"/>
        </g>
      </g>
      <g id="Group_588" data-name="Group 588" transform="translate(102.162 520.776)" style="mix-blend-mode: multiply;isolation: isolate">
        <g id="Group_587" data-name="Group 587">
          <path id="Path_1853" data-name="Path 1853" d="M140.19,398.918h-.431c-46.787,0-94.147-31.656-94.147-92.166a99.357,99.357,0,0,1,4.879-31.4l8.7,2.9a90.085,90.085,0,0,0-4.411,28.506c0,54.49,42.752,83,84.977,83Zm84.339-48.951-8.175-4.154c5.846-11.522,8.808-24.663,8.808-39.061,0-18.827-5.012-35.292-14.9-48.942l7.423-5.383c11.05,15.25,16.649,33.527,16.649,54.325C234.332,322.6,231.035,337.142,224.529,349.967Z" transform="translate(-45.612 -252.427)" fill="#0cc"/>
        </g>
      </g>
    </g>
    
      <style>
  g#q3{
    animation: floating2 5s infinite linear;
  }

   @keyframes floating2 {
     0% {
        transform: matrix(1.00,0.00,0.00,1.00,479.969,448.826);
    }
    50% {
        transform:matrix(1.00,0.00,0.00,1.00,479.969,348.826);
    }
    100% {
        transform: matrix(1.00,0.00,0.00,1.00,479.969,448.826);
    }
}
  </style>
    <g id="q3" transform="translate(479.969 448.826)">
      <g id="Group_591" data-name="Group 591" transform="translate(26.167 19.721)" style="mix-blend-mode: multiply;isolation: isolate">
        <g id="Group_590" data-name="Group 590">
          <path id="Path_1854" data-name="Path 1854" d="M201.6,380.505h-4l-.546-3.966c-1.064-7.808-2.086-14.622-2.99-20.633-4.209-28.034-5.956-39.634,2.857-53.481,8.877-13.943,21.069-22.632,32.862-31.032,12.7-9.046,24.682-17.589,33.178-32.362,7.969-13.843,7.6-29.088-.949-39.781-10.312-12.893-29.8-16.452-52.142-9.542a170.8,170.8,0,0,0-29.024,12.054c-20.794,10.578-23.238,6.8-46.594-29.4-2.421-3.755-5.094-7.9-8.065-12.462l-2.215-3.4,3.113-2.614c48.887-40.964,108.847-53.6,160.352-33.792,37.864,14.558,63.376,43.971,68.245,78.686,5.521,39.4-16.3,79.818-61.446,113.835-28.153,21.229-26.988,34.925-26.14,44.921.426,5.011.867,10.2-2.99,14.4C259.071,378.5,244.229,380.505,201.6,380.505Zm29.611-203.434c15.883,0,29.317,5.64,37.96,16.452,10.954,13.7,11.623,32.894,1.742,50.079-9.5,16.511-22.88,26.039-35.815,35.26-11.582,8.253-22.531,16.048-30.441,28.488-6.974,10.949-5.493,20.821-1.531,47.195.757,5.007,1.586,10.564,2.467,16.782,24.246-.073,48.46-.912,52.757-5.594,1.082-1.178.949-3.352.605-7.414-.912-10.752-2.444-28.74,29.758-53.023,42.367-31.922,62.922-69.3,57.883-105.238-4.4-31.367-27.745-58.057-62.454-71.4C236.865,110.481,181.8,121.6,136.1,158.346q3.15,4.856,5.851,9.051c11.064,17.148,17.162,26.594,21.477,29.547,2.618,1.788,4.553,1.073,13.256-3.356a178.761,178.761,0,0,1,30.464-12.637A81.792,81.792,0,0,1,231.207,177.071Z" transform="translate(-123.965 -110.908)" fill="#2b0356"/>
        </g>
      </g>
      <g id="Group_593" data-name="Group 593" transform="translate(83.67 362.088)" style="mix-blend-mode: multiply;isolation: isolate">
        <g id="Group_592" data-name="Group 592">
          <path id="Path_1855" data-name="Path 1855" d="M182.532,264.247c-22.871,0-46.026-15.4-46.026-44.847,0-29.363,23.155-44.728,46.026-44.728,23,0,46.282,15.365,46.282,44.728C228.814,248.846,205.531,264.247,182.532,264.247Zm0-80.405c-17.749,0-36.855,11.128-36.855,35.558,0,24.512,19.106,35.677,36.855,35.677,17.873,0,37.112-11.165,37.112-35.677C219.644,194.97,200.4,183.842,182.532,183.842Z" transform="translate(-136.506 -174.672)" fill="#2b0356"/>
        </g>
      </g>
      <g id="Group_598" data-name="Group 598" style="mix-blend-mode: multiply;isolation: isolate">
        <g id="Group_594" data-name="Group 594" transform="translate(73.052 160.948)">
          <path id="Path_1856" data-name="Path 1856" d="M164.937,289.883h-21.28L140.768,268.8c-1.036-7.575-2.027-14.2-2.9-20.051-4.452-29.592-7.107-47.273,5.681-67.374,10.945-17.2,25.356-27.465,38.07-36.525L186,141.709l5.365,7.437-4.411,3.159c-12.045,8.579-25.681,18.3-35.663,33.99-10.949,17.2-8.758,31.766-4.4,60.781.926,6.195,1.926,12.861,2.967,20.477l1.8,13.159h13.283c42.527,0,61.835-1.669,71.336-12.013,7.015-7.639,6.254-16.575,5.754-22.485-.812-9.565.179-18.753,20.578-34.49l5.6,7.263c-18.1,13.962-17.561,20.308-17.043,26.438.564,6.6,1.609,18.873-8.134,29.478C231.348,287.618,212.411,289.883,164.937,289.883Z" transform="translate(-134.19 -141.709)" fill="#2b0356"/>
        </g>
        <g id="Group_595" data-name="Group 595" transform="translate(146.408 110.773)">
          <path id="Path_1857" data-name="Path 1857" d="M163.087,154.6l-8.84-2.43a17.3,17.3,0,0,0,.646-4.544,11.666,11.666,0,0,0-1.495-5.915,11.242,11.242,0,0,0-3.21-3.485l5.337-7.455a20.323,20.323,0,0,1,5.809,6.346,20.713,20.713,0,0,1,2.728,10.509A26.16,26.16,0,0,1,163.087,154.6Z" transform="translate(-150.189 -130.766)" fill="#2b0356"/>
        </g>
        <g id="Group_596" data-name="Group 596">
          <path id="Path_1858" data-name="Path 1858" d="M186.471,242.254c-20.184,0-29.024-13.7-48.4-43.724l-19.817-30.519,16.562-13.879c40.487-33.921,87.627-50.441,134.886-47.1l-.646,9.147c-44.911-3.155-89.7,12.6-128.347,44.985l-10.339,8.661,15.406,23.737c18.565,28.763,25.507,39.524,40.693,39.524,7.015,0,12.871-2.976,19.652-6.419a158.28,158.28,0,0,1,27.346-11.376,67.833,67.833,0,0,1,13.072-2.751l.926,9.129a58.271,58.271,0,0,0-11.284,2.384,150.7,150.7,0,0,0-25.906,10.784C203.106,238.485,195.687,242.254,186.471,242.254Z" transform="translate(-118.258 -106.607)" fill="#2b0356"/>
        </g>
        <g id="Group_597" data-name="Group 597" transform="translate(254.769 96.05)">
          <path id="Path_1859" data-name="Path 1859" d="M181.828,209.015l-8.006-4.466c9.743-17.456,14.686-35.347,14.686-53.174a96.179,96.179,0,0,0-2.494-21.752l8.941-2.068a105.9,105.9,0,0,1,2.724,23.82C197.678,170.788,192.346,190.179,181.828,209.015Z" transform="translate(-173.822 -127.555)" fill="#2b0356"/>
        </g>
      </g>
      <g id="Group_600" data-name="Group 600" transform="translate(63.871 342.285)" style="mix-blend-mode: multiply;isolation: isolate">
        <g id="Group_599" data-name="Group 599">
          <path id="Path_1860" data-name="Path 1860" d="M198.012,299.535c-32.71,0-65.824-22.206-65.824-64.651,0-42.367,33.114-64.531,65.824-64.531,32.036,0,66.086,22.619,66.086,64.531a64.1,64.1,0,0,1-9.115,33.912l-7.827-4.778a55.061,55.061,0,0,0,7.772-29.134c0-35.957-29.327-55.361-56.915-55.361-28.157,0-56.654,19.019-56.654,55.361,0,36.424,28.5,55.48,56.654,55.48Z" transform="translate(-132.188 -170.353)" fill="#2b0356"/>
        </g>
      </g>
    </g>
    <g id="q2" transform="translate(175.378 29.355)">
      <g id="Group_602" data-name="Group 602" transform="translate(28.029 10.747)" style="mix-blend-mode: multiply;isolation: isolate">
        <path id="Path_1861" data-name="Path 1861" d="M186.995,474.17h-4l-.541-3.962c-1.839-13.439-3.6-25.154-5.145-35.484-7.112-47.323-10.055-66.911,4.425-89.663,14.906-23.426,35.594-38.167,55.6-52.422,21.142-15.062,43-30.638,57.965-56.654,14.379-24.989,13.645-52.6-1.917-72.056-18.6-23.251-53.422-29.794-93.152-17.488a296.424,296.424,0,0,0-50.4,20.927C116.75,184.2,114.329,180.455,74.026,118c-4.168-6.46-8.762-13.586-13.865-21.426l-2.219-3.407,3.113-2.609C144.142,20.942,245.918-.567,333.32,33.038c63.931,24.576,106.994,74.146,115.188,132.6,9.322,66.453-27.726,134.831-104.312,192.535-49.831,37.575-47.658,63.17-46.214,80.107.7,8.267,1.371,16.076-4.283,22.229C284.2,470.85,258.275,474.17,186.995,474.17Zm50.881-343c26.291,0,48.46,9.267,62.67,27.034,17.969,22.467,19.005,54.027,2.705,82.354C287.29,268.306,264.6,284.473,242.658,300.1c-20.184,14.384-39.244,27.965-53.192,49.882-12.637,19.858-10.042,37.153-3.1,83.372,1.4,9.34,2.976,19.8,4.617,31.638,62.023-.124,89.034-3.155,95.958-10.688,2.8-3.045,2.572-7.322,1.9-15.25-1.614-18.946-4.049-47.575,49.831-88.2,73.812-55.609,109.59-120.933,100.754-183.938C431.7,111.81,390.8,64.959,330.028,41.6,246.867,9.63,149.974,29.608,70.073,95c4.232,6.516,8.1,12.517,11.66,18.033,19.248,29.826,29.849,46.255,37.823,51.707,6.185,4.232,11.211,2.036,26.122-5.548a304.384,304.384,0,0,1,51.84-21.509A136.971,136.971,0,0,1,237.876,131.169Z" transform="translate(-57.941 -17.466)" fill="#e98b1c"/>
      </g>
      <g id="Group_608" data-name="Group 608" style="mix-blend-mode: multiply;isolation: isolate">
        <g id="Group_604" data-name="Group 604" transform="translate(120.288 324.835)">
          <path id="Path_1863" data-name="Path 1863" d="M114.857,249.794H92.348l-3.049-22.3c-1.82-13.329-3.567-24.952-5.112-35.2-7.469-49.772-11.229-74.752,7.51-104.2.454-.711.908-1.421,1.371-2.123l7.657,5.053-1.284,1.985c-16.905,26.557-13.32,50.409-6.181,97.92,1.545,10.284,3.3,21.954,5.126,35.329l1.967,14.37h14.5c77.141,0,103.065-3.939,115.573-17.552a28.766,28.766,0,0,0,7.245-14.544l9.01,1.692a37.642,37.642,0,0,1-9.5,19.051C222.383,245.383,196.092,249.794,114.857,249.794Z" transform="translate(-78.062 -85.967)" fill="#e98b1c"/>
        </g>
        <g id="Group_605" data-name="Group 605" transform="translate(198.042 145.64)">
          <path id="Path_1864" data-name="Path 1864" d="M160.322,100.186l-9.111-1.073a43.266,43.266,0,0,0,.3-4.993A35.892,35.892,0,0,0,146.759,75.9c-8.4-14.507-27.318-21.793-50.808-19.4l-.931-9.12c27.213-2.8,49.423,6.208,59.671,23.921a44.928,44.928,0,0,1,5.993,22.811A51.6,51.6,0,0,1,160.322,100.186Z" transform="translate(-95.02 -46.885)" fill="#e98b1c"/>
        </g>
        <g id="Group_606" data-name="Group 606">
          <path id="Path_1865" data-name="Path 1865" d="M147.754,205.681c-25.9,0-37.8-18.451-69.621-67.759-4.163-6.442-8.748-13.549-13.833-21.371L51.828,97.389,69.343,82.707c38.9-32.591,81.157-55.334,125.583-67.585l2.435,8.836C154.21,35.865,113.118,57.993,75.24,89.736L63.947,99.2l8.038,12.348c5.094,7.836,9.688,14.952,13.847,21.4,30.684,47.543,41.019,63.559,61.922,63.559,5.241,0,10.459-1.224,16.924-3.966l3.586,8.441C160.611,204.232,154.283,205.681,147.754,205.681Z" transform="translate(-51.828 -15.122)" fill="#e98b1c"/>
        </g>
        <g id="Group_607" data-name="Group 607" transform="translate(379.549 143.923)">
          <path id="Path_1866" data-name="Path 1866" d="M141.6,215.643l-7-5.933c34.439-40.569,52.642-84.747,52.642-127.774A156.157,156.157,0,0,0,183.6,48.478l8.955-1.967a164.966,164.966,0,0,1,3.861,35.425C196.418,127.164,177.463,173.4,141.6,215.643Z" transform="translate(-134.606 -46.511)" fill="#e98b1c"/>
        </g>
      </g>
    </g>
    
  <style>
  #q1{
    animation: floating 6s infinite linear;
  }
   @keyframes floating {
    0% {
        transform: matrix(1.00,0.00,0.00,1.00,-0.948,169.669);
    }
    50% {
        transform: matrix(1.00,0.00,0.00,1.00,-0.948,199.669);
    }
    100% {
        transform: matrix(matrix(1.00,0.00,0.00,1.00,-0.948,169.669);
    }
}
  </style>
    <g id="q1" transform="translate(-0.948 169.669)">
      <g id="Group_612" data-name="Group 612" transform="translate(25.186 18.975)" style="mix-blend-mode: multiply;isolation: isolate">
        <path id="Path_1868" data-name="Path 1868" d="M91.131,299.944h-4l-.541-3.966c-.986-7.217-1.93-13.508-2.765-19.06-3.8-25.273-5.534-36.81,2.687-49.726,8.244-12.962,19.556-21.014,30.491-28.808,11.706-8.34,22.77-16.222,30.592-29.826,7.295-12.682,6.969-26.635-.848-36.411-9.445-11.816-27.337-15.071-47.864-8.716a157.3,157.3,0,0,0-26.791,11.133c-19.528,9.927-21.8,6.392-43.541-27.309-2.247-3.476-4.723-7.309-7.465-11.532l-2.219-3.407,3.113-2.609C67.3,51.731,122.893,40.016,170.656,58.389,205.8,71.9,229.479,99.21,234,131.449c5.126,36.571-15.1,74.082-56.975,105.623-25.888,19.524-24.824,32.082-24.04,41.253.4,4.714.816,9.583-2.857,13.577C144.47,298.064,130.688,299.944,91.131,299.944Zm27.4-188.876c14.792,0,27.318,5.264,35.379,15.351,10.229,12.788,10.858,30.684,1.641,46.709-8.826,15.337-21.229,24.177-33.229,32.724-10.688,7.616-20.784,14.81-28.07,26.259-6.378,10.023-5.012,19.125-1.357,43.44.679,4.548,1.435,9.583,2.228,15.214,22.256-.073,44.384-.848,48.259-5.062.9-.981.775-3.044.468-6.6-.848-10.018-2.279-26.777,27.658-49.354,39.093-29.45,58.057-63.908,53.417-97.026-4.053-28.891-25.571-53.477-57.557-65.779C123.833,50.209,73.13,60.406,31.006,94.162q2.82,4.354,5.245,8.12c10.211,15.823,15.833,24.535,19.771,27.227,2.141,1.476,3.609,1.1,11.9-3.122a165.461,165.461,0,0,1,28.244-11.715A75.926,75.926,0,0,1,118.528,111.068Z" transform="translate(-18.865 -49.862)" fill="#0087eb"/>
      </g>
      <g id="Group_617" data-name="Group 617" style="mix-blend-mode: multiply;isolation: isolate">
        <g id="Group_613" data-name="Group 613" transform="translate(67.915 142.836)">
          <path id="Path_1869" data-name="Path 1869" d="M57.722,222.156H37.089L34.3,201.711c-.963-7.034-1.889-13.178-2.7-18.611-4.15-27.557-6.63-44.059,5.42-62.991,10.243-16.094,23.669-25.658,35.512-34.1,4.37-3.113,8.492-6.048,12.219-9.134L90.6,83.942c-3.98,3.3-8.24,6.327-12.742,9.537-11.165,7.951-23.82,16.97-33.1,31.55-10.211,16.043-8.175,29.56-4.127,56.494.853,5.681,1.779,11.871,2.751,18.946l1.71,12.517H57.722c39.464,0,57.4-1.564,66.283-11.238,6.607-7.2,5.864-15.906,5.424-21.105-.784-9.23.2-17.483,20.133-32.513q3.721-2.806,7.222-5.663l5.8,7.1q-3.638,2.978-7.506,5.887c-17.469,13.173-17.011,18.634-16.52,24.411.5,5.814,1.531,17.923-7.8,28.084C119.685,220.006,101.991,222.156,57.722,222.156Z" transform="translate(-28.184 -76.876)" fill="#0087eb"/>
        </g>
        <g id="Group_614" data-name="Group 614" transform="translate(138.898 108.856)">
          <path id="Path_1870" data-name="Path 1870" d="M53.042,86.6,44.247,84a14.889,14.889,0,0,0,.66-4.25,9.712,9.712,0,0,0-1.243-4.934l7.474-5.351c.174.261.335.536.491.807a18.708,18.708,0,0,1,2.448,9.478A24.272,24.272,0,0,1,53.042,86.6Z" transform="translate(-43.665 -69.465)" fill="#0087eb"/>
        </g>
        <g id="Group_615" data-name="Group 615">
          <path id="Path_1871" data-name="Path 1871" d="M77.9,173.37c-19.262,0-27.538-12.834-45.677-40.945l-.527-.812c-2.091-3.242-4.374-6.786-6.9-10.656L13.372,103.391,29.429,89.934c34.517-28.923,74.1-44.21,114.468-44.21A155.775,155.775,0,0,1,166.044,47.3l-1.307,9.079A146.932,146.932,0,0,0,143.9,54.894c-38.185,0-75.733,14.544-108.576,42.069L25.491,105.2l6.992,10.757c2.531,3.874,4.828,7.437,6.924,10.688l.523.812c18.4,28.52,24.32,36.745,37.974,36.745,6.589,0,12.041-2.774,18.359-5.988a146.7,146.7,0,0,1,25.237-10.5c8.868-2.746,17.162-3.443,23.9-2.091l-1.807,8.991c-5.195-1.045-12.022-.426-19.381,1.857a139.02,139.02,0,0,0-23.8,9.913C93.672,169.821,86.688,173.37,77.9,173.37Z" transform="translate(-13.372 -45.724)" fill="#0087eb"/>
        </g>
        <g id="Group_616" data-name="Group 616" transform="translate(239.991 89.608)">
          <path id="Path_1872" data-name="Path 1872" d="M73.907,136.351l-8.194-4.117c7.368-14.682,11.11-29.684,11.11-44.6a90.038,90.038,0,0,0-2.338-20.3l8.927-2.072a99.051,99.051,0,0,1,2.581,22.371C85.993,103.993,81.926,120.38,73.907,136.351Z" transform="translate(-65.713 -65.267)" fill="#0087eb"/>
        </g>
      </g>
      <g id="Group_619" data-name="Group 619" transform="translate(59.433 299.997)" style="mix-blend-mode: multiply;isolation: isolate">
        <g id="Group_618" data-name="Group 618">
          <path id="Path_1873" data-name="Path 1873" d="M88.311,232.819c-30.8,0-61.977-20.917-61.977-60.891,0-39.9,31.179-60.776,61.977-60.776,30.161,0,62.216,21.3,62.216,60.776,0,19.684-8.249,36.732-23.224,48l-5.516-7.323c8.932-6.722,19.569-19.235,19.569-40.679,0-33.517-27.332-51.606-53.046-51.606-26.241,0-52.807,17.726-52.807,51.606,0,33.953,26.566,51.72,52.807,51.72Z" transform="translate(-26.334 -111.152)" fill="#0087eb"/>
        </g>
      </g>
      <g id="Group_620" data-name="Group 620" transform="translate(78.489 319.057)" style="mix-blend-mode: multiply;isolation: isolate">
        <path id="Path_1874" data-name="Path 1874" d="M73.412,198.855c-21.33,0-42.922-14.37-42.922-41.83,0-27.387,21.591-41.716,42.922-41.716,21.445,0,43.155,14.329,43.155,41.716C116.567,184.485,94.852,198.855,73.412,198.855Zm0-74.376c-16.254,0-33.751,10.184-33.751,32.545,0,22.44,17.5,32.66,33.751,32.66,16.364,0,33.985-10.22,33.985-32.66,0-10.069-3.618-18.487-10.463-24.347A36.012,36.012,0,0,0,73.412,124.479Z" transform="translate(-30.49 -115.309)" fill="#0087eb"/>
      </g>
    </g>
  </g>
</svg>
