<svg xmlns="http://www.w3.org/2000/svg" xmlns:xlink="http://www.w3.org/1999/xlink" width="138" height="81" viewBox="0 0 138 81"><defs><filter id="a" x="44.216" y="18" width="47.656" height="47.656" filterUnits="userSpaceOnUse"><feOffset dy="3" input="SourceAlpha"/><feGaussianBlur stdDeviation="3" result="b"/><feFlood flood-color="#9eca01" flood-opacity="0.722"/><feComposite operator="in" in2="b"/><feComposite in="SourceGraphic"/></filter></defs><g transform="translate(-288 -215)"><rect width="138" height="81" rx="4" transform="translate(288 215)" fill="#fff"/><g transform="translate(356.044 239) rotate(45)"><g transform="matrix(0.71, -0.71, 0.71, 0.71, -65.08, 31.14)" filter="url(#a)"><circle cx="10.485" cy="10.485" r="10.485" transform="translate(68.04 24) rotate(45)" fill="#9eca01"/></g><g transform="translate(6.553 6.44)"><path d="M.878,7.965a.88.88,0,0,1-.622-1.5L6.48.241A.88.88,0,0,1,7.726,1.483L1.5,7.707a.879.879,0,0,1-.624.258Z" transform="translate(0.003 0.02)" fill="#fff"/><path d="M7.1,7.985a.878.878,0,0,1-.622-.258L.258,1.5A.88.88,0,0,1,1.5.258L7.727,6.482a.88.88,0,0,1-.622,1.5Z" fill="#fff"/></g></g></g></svg>