<svg xmlns="http://www.w3.org/2000/svg" xmlns:xlink="http://www.w3.org/1999/xlink" width="39.13" height="39.13" viewBox="0 0 39.13 39.13"><defs><filter id="a" x="0" y="0" width="39.13" height="39.13" filterUnits="userSpaceOnUse"><feOffset dy="3.012" input="SourceAlpha"/><feGaussianBlur stdDeviation="3.012" result="b"/><feFlood flood-color="#9eca01" flood-opacity="0.722"/><feComposite operator="in" in2="b"/><feComposite in="SourceGraphic"/></filter></defs><g transform="translate(-9727.323 -11997.336)"><g transform="translate(9735.401 12002.54)"><g transform="matrix(1, 0, 0, 1, -8.08, -5.2)" filter="url(#a)"><circle cx="10.528" cy="10.528" r="10.528" transform="translate(9.04 6.02)" fill="#9eca01"/></g></g><g transform="translate(9746.87 12008.158) rotate(45)"><path d="M168.152,172.72a.88.88,0,0,1-.622-1.5l6.224-6.22A.88.88,0,0,1,175,166.238l-6.224,6.224a.879.879,0,0,1-.624.258Z" transform="translate(-167.27 -164.735)" fill="#fff"/><path d="M174.356,172.72a.878.878,0,0,1-.622-.258l-6.224-6.224a.88.88,0,0,1,1.245-1.245l6.224,6.224a.88.88,0,0,1-.622,1.5Z" transform="translate(-167.251 -164.735)" fill="#fff"/></g></g></svg>