<svg xmlns="http://www.w3.org/2000/svg" width="17.479" height="19.652" viewBox="0 0 17.479 19.652"><g transform="translate(0.2 0.2)"><g transform="translate(0 0)"><path d="M74,114.908H61.515a.494.494,0,0,0-.37.123.42.42,0,0,0-.123.37l1.283,11.18a2.443,2.443,0,0,0,2.443,2.147h6.219a2.443,2.443,0,0,0,2.468-2.221L74.5,115.352a.42.42,0,0,0-.123-.321A.493.493,0,0,0,74,114.908Zm-1.555,11.55a1.431,1.431,0,0,1-1.481,1.283H64.748a1.407,1.407,0,0,1-1.456-1.259L62.058,115.9h11.4Z" transform="translate(-59.219 -109.478)" fill="#fc1919" stroke="red" stroke-width="0.4"/><path d="M39.578,2.221H34.494v-.79A1.382,1.382,0,0,0,33.162,0H29.977A1.382,1.382,0,0,0,28.57,1.356q0,.038,0,.075v.79H23.487a.494.494,0,1,0,0,.987H39.578a.494.494,0,1,0,0-.987Zm-6.071-.79v.79H29.558v-.79a.395.395,0,0,1,.42-.444h3.11a.4.4,0,0,1,.422.366A.39.39,0,0,1,33.507,1.432Z" transform="translate(-22.993 0)" fill="#fc1919" stroke="red" stroke-width="0.4"/></g></g></svg>