<svg xmlns="http://www.w3.org/2000/svg" xmlns:xlink="http://www.w3.org/1999/xlink" width="38.97" height="38.97" viewBox="0 0 38.97 38.97"><defs><filter id="a" x="0" y="0" width="38.97" height="38.97" filterUnits="userSpaceOnUse"><feOffset dy="3" input="SourceAlpha"/><feGaussianBlur stdDeviation="3" result="b"/><feFlood flood-color="red" flood-opacity="0.541"/><feComposite operator="in" in2="b"/><feComposite in="SourceGraphic"/></filter></defs><g transform="translate(-9817.343 -11982.343)"><g transform="translate(9825.473 11987.473)"><g transform="matrix(1, 0, 0, 1, -8.13, -5.13)" filter="url(#a)"><circle cx="10.485" cy="10.485" r="10.485" transform="translate(9 6)" fill="red"/></g></g><g transform="translate(9830.999 11993)"><g transform="translate(0 0)"><path d="M69.545,114.908h-8.2a.324.324,0,0,0-.243.081.276.276,0,0,0-.081.243l.843,7.343a1.6,1.6,0,0,0,1.6,1.41h4.085a1.6,1.6,0,0,0,1.621-1.459l.7-7.327a.276.276,0,0,0-.081-.211A.324.324,0,0,0,69.545,114.908Zm-1.021,7.586a.94.94,0,0,1-.973.843H63.467a.924.924,0,0,1-.956-.827l-.81-6.954h7.489Z" transform="translate(-59.836 -111.341)" fill="#fff" stroke="#fff" stroke-width="0.4"/><path d="M33.886,1.459H30.547V.94A.908.908,0,0,0,29.672,0H27.58a.908.908,0,0,0-.924.891q0,.025,0,.049v.519H23.317a.324.324,0,1,0,0,.648H33.886a.324.324,0,1,0,0-.648ZM29.9.94v.519H27.3V.94A.259.259,0,0,1,27.58.648h2.042a.259.259,0,0,1,.277.24A.256.256,0,0,1,29.9.94Z" transform="translate(-22.993 0)" fill="#fff" stroke="#fff" stroke-width="0.4"/></g></g></g></svg>