<svg xmlns="http://www.w3.org/2000/svg" width="24.654" height="18.49" viewBox="0 0 24.654 18.49"><g transform="translate(0 -64.004)"><g transform="translate(0 64.004)"><path d="M24.429,71.935l-7.7-7.706a.771.771,0,0,0-1.316.545v3.852H13.1A13.112,13.112,0,0,0,0,81.724a.769.769,0,0,0,.558.74.725.725,0,0,0,.213.031.77.77,0,0,0,.653-.362l.231-.37a11.63,11.63,0,0,1,9.794-5.432h3.96v3.852a.771.771,0,0,0,1.316.545l7.7-7.7A.771.771,0,0,0,24.429,71.935ZM16.95,78.323V75.56a.771.771,0,0,0-.77-.77h-4.73a13.2,13.2,0,0,0-9.573,4.171A11.576,11.576,0,0,1,13.1,70.167h3.082a.771.771,0,0,0,.77-.77V66.634l5.845,5.845Z" transform="translate(0 -64.004)" fill="#9eca01"/></g></g></svg>