<svg xmlns="http://www.w3.org/2000/svg" width="59" height="50" viewBox="0 0 59 50"><g transform="translate(-1719 -712)"><rect width="59" height="50" rx="4" transform="translate(1719 712)" fill="#9eca01"/><g transform="translate(1737 726)"><path d="M8.75,17.612V22.25a.75.75,0,0,0,1.354.444L12.817,19Z" fill="#fff"/><path d="M23.685.139A.75.75,0,0,0,22.9.085L.4,11.835a.75.75,0,0,0,.1,1.375l6.255,2.138L20.083,3.958,9.775,16.377,20.258,19.96A.767.767,0,0,0,20.5,20a.749.749,0,0,0,.742-.639l2.75-18.5a.751.751,0,0,0-.307-.722Z" fill="#fff"/></g></g></svg>